<?xml version="1.0" encoding="UTF-8" standalone="no"?>
<svg
   xmlns:dc="http://purl.org/dc/elements/1.1/"
   xmlns:cc="http://creativecommons.org/ns#"
   xmlns:rdf="http://www.w3.org/1999/02/22-rdf-syntax-ns#"
   xmlns:svg="http://www.w3.org/2000/svg"
   xmlns="http://www.w3.org/2000/svg"
   xmlns:sodipodi="http://sodipodi.sourceforge.net/DTD/sodipodi-0.dtd"
   xmlns:inkscape="http://www.inkscape.org/namespaces/inkscape"
   version="1.1"
   viewBox="0 0 469.00787 360.01572"
   stroke-miterlimit="10"
   id="svg2"
   inkscape:version="0.91 r13725"
   sodipodi:docname="cd-comunita-di-pratica.svg"
   width="469.00787"
   height="360.01572"
   style="fill:none;stroke:none;stroke-linecap:square;stroke-miterlimit:10">
  <metadata
     id="metadata63">
    <rdf:RDF>
      <cc:Work
         rdf:about="">
        <dc:format>image/svg+xml</dc:format>
        <dc:type
           rdf:resource="http://purl.org/dc/dcmitype/StillImage" />
        <dc:title></dc:title>
      </cc:Work>
    </rdf:RDF>
  </metadata>
  <defs
     id="defs61" />
  <sodipodi:namedview
     pagecolor="#ffffff"
     bordercolor="#666666"
     borderopacity="1"
     objecttolerance="10"
     gridtolerance="10"
     guidetolerance="10"
     inkscape:pageopacity="0"
     inkscape:pageshadow="2"
     inkscape:window-width="1342"
     inkscape:window-height="1063"
     id="namedview59"
     showgrid="false"
     inkscape:zoom="1.250271"
     inkscape:cx="278.41535"
     inkscape:cy="84.949794"
     inkscape:window-x="0"
     inkscape:window-y="15"
     inkscape:window-maximized="0"
     inkscape:current-layer="svg2"
     fit-margin-top="15"
     fit-margin-left="15"
     fit-margin-right="15"
     fit-margin-bottom="15" />
  <clipPath
     id="p.0">
    <path
       d="m 0,0 1024,0 0,768 L 0,768 0,0 Z"
       id="path5"
       inkscape:connector-curvature="0"
       style="clip-rule:nonzero" />
  </clipPath>
  <g
     id="g3586"
     transform="translate(-27.462162,-18.500611)">
    <path
       id="path11"
       d="m 43.462162,89.508481 0,0 c 0,-30.38001 28.87939,-55.00787 64.503938,-55.00787 l 0,0 c 35.62454,0 64.50394,24.62786 64.50394,55.00787 l 0,0 c 0,30.380009 -28.8794,55.007869 -64.50394,55.007869 l 0,0 c -35.624538,0 -64.503938,-24.62786 -64.503938,-55.007869 z"
       style="fill:#cfe2f3;fill-rule:nonzero"
       inkscape:connector-curvature="0" />
    <path
       id="path13"
       d="m 43.462162,89.508481 0,0 c 0,-30.38001 28.87939,-55.00787 64.503938,-55.00787 l 0,0 c 35.62454,0 64.50394,24.62786 64.50394,55.00787 l 0,0 c 0,30.380009 -28.8794,55.007869 -64.50394,55.007869 l 0,0 c -35.624538,0 -64.503938,-24.62786 -64.503938,-55.007869 z"
       style="fill-rule:nonzero;stroke:#6aa84f;stroke-width:2;stroke-linecap:butt;stroke-linejoin:round"
       inkscape:connector-curvature="0" />
    <path
       id="path15"
       d="m 80.303642,92.053471 1.6875,-0.14063 q 0.125,1.01563 0.5625,1.67188 0.4375,0.65625 1.35937,1.0625 0.9375,0.40625 2.09375,0.40625 1.03125,0 1.8125,-0.3125 0.79688,-0.3125 1.1875,-0.84375 0.39063,-0.53125 0.39063,-1.15625 0,-0.64063 -0.375,-1.10938 -0.375,-0.48437 -1.23438,-0.8125 -0.54687,-0.21875 -2.42187,-0.65625 -1.875,-0.45312 -2.625,-0.85937 -0.96875,-0.51563 -1.45313,-1.26563 -0.46875,-0.75 -0.46875,-1.6875 0,-1.03125 0.57813,-1.92187 0.59375,-0.90625 1.70312,-1.35938 1.125,-0.46875 2.5,-0.46875 1.51563,0 2.67188,0.48438 1.15625,0.48437 1.76562,1.4375 0.625,0.9375 0.67188,2.14062 l -1.71875,0.125 q -0.14063,-1.28125 -0.95313,-1.9375 -0.79687,-0.67187 -2.35937,-0.67187 -1.625,0 -2.375,0.60937 -0.75,0.59375 -0.75,1.4375 0,0.73438 0.53125,1.20313 0.51562,0.46875 2.70312,0.96875 2.20313,0.5 3.01563,0.875 1.1875,0.54687 1.75,1.39062 0.57812,0.82813 0.57812,1.92188 0,1.09375 -0.625,2.0625 -0.625,0.95312 -1.79687,1.48437 -1.15625,0.53125 -2.60938,0.53125 -1.84375,0 -3.09375,-0.53125 -1.25,-0.54687 -1.96875,-1.625 -0.70312,-1.07812 -0.73437,-2.45312 z m 19.27171,0.76562 1.640628,0.21875 q -0.26563,1.6875 -1.374998,2.65625 -1.10938,0.95313 -2.73439,0.95313 -2.01563,0 -3.25,-1.3125 -1.21875,-1.32813 -1.21875,-3.79688 0,-1.59375 0.51562,-2.78125 0.53125,-1.20312 1.60938,-1.79687 1.09375,-0.60938 2.35937,-0.60938 1.60939,0 2.62502,0.8125 1.015618,0.8125 1.312498,2.3125 l -1.624998,0.25 q -0.23438,-1 -0.82813,-1.5 -0.59376,-0.5 -1.42189,-0.5 -1.26562,0 -2.0625,0.90625 -0.78125,0.90625 -0.78125,2.85938 0,1.98437 0.76563,2.89062 0.76562,0.89063 1.98437,0.89063 0.98438,0 1.64064,-0.59375 0.65625,-0.60938 0.84375,-1.85938 z m 9.343748,3.60938 0,-1.45313 q -1.14062,1.67188 -3.125,1.67188 -0.85937,0 -1.625,-0.32813 -0.75,-0.34375 -1.125,-0.84375 -0.35937,-0.5 -0.51562,-1.23437 -0.0937,-0.5 -0.0937,-1.5625 l 0,-6.10938 1.67187,0 0,5.46875 q 0,1.3125 0.0937,1.76563 0.15625,0.65625 0.67188,1.03125 0.51562,0.375 1.26562,0.375 0.75,0 1.40625,-0.375 0.65625,-0.39063 0.92188,-1.04688 0.28125,-0.67187 0.28125,-1.9375 l 0,-5.28125 1.67187,0 0,9.85938 -1.5,0 z m 3.29758,-4.92188 q 0,-2.73437 1.53125,-4.0625 1.26562,-1.09375 3.09375,-1.09375 2.03125,0 3.3125,1.34375 1.29687,1.32813 1.29687,3.67188 0,1.90625 -0.57812,3 -0.5625,1.07812 -1.65625,1.6875 -1.07813,0.59375 -2.375,0.59375 -2.0625,0 -3.34375,-1.32813 -1.28125,-1.32812 -1.28125,-3.8125 z m 1.71875,0 q 0,1.89063 0.82812,2.82813 0.82813,0.9375 2.07813,0.9375 1.25,0 2.0625,-0.9375 0.82812,-0.95313 0.82812,-2.89063 0,-1.82812 -0.82812,-2.76562 -0.82813,-0.9375 -2.0625,-0.9375 -1.25,0 -2.07813,0.9375 -0.82812,0.9375 -0.82812,2.82812 z m 9.25073,4.92188 0,-13.59375 1.67188,0 0,13.59375 -1.67188,0 z m 10.61356,-1.21875 q -0.9375,0.79687 -1.79688,1.125 -0.85937,0.3125 -1.84375,0.3125 -1.60937,0 -2.48437,-0.78125 -0.875,-0.79688 -0.875,-2.03125 0,-0.73438 0.32812,-1.32813 0.32813,-0.59375 0.85938,-0.95312 0.53125,-0.35938 1.20312,-0.54688 0.5,-0.14062 1.48438,-0.25 2.03125,-0.25 2.98437,-0.57812 0,-0.34375 0,-0.4375 0,-1.01563 -0.46875,-1.4375 -0.64062,-0.5625 -1.90625,-0.5625 -1.17187,0 -1.73437,0.40625 -0.5625,0.40625 -0.82813,1.46875 l -1.64062,-0.23438 q 0.23437,-1.04687 0.73437,-1.6875 0.51563,-0.64062 1.46875,-0.98437 0.96875,-0.35938 2.25,-0.35938 1.26563,0 2.04688,0.29688 0.78125,0.29687 1.15625,0.75 0.375,0.45312 0.51562,1.14062 0.0937,0.42188 0.0937,1.53125 l 0,2.23438 q 0,2.32812 0.0937,2.95312 0.10938,0.60938 0.4375,1.17188 l -1.75,0 q -0.26562,-0.51563 -0.32812,-1.21875 z m -0.14063,-3.71875 q -0.90625,0.35937 -2.73437,0.625 -1.03125,0.14062 -1.45313,0.32812 -0.42187,0.1875 -0.65625,0.54688 -0.23437,0.35937 -0.23437,0.79687 0,0.67188 0.5,1.125 0.51562,0.4375 1.48437,0.4375 0.96875,0 1.71875,-0.42187 0.75,-0.4375 1.10938,-1.15625 0.26562,-0.57813 0.26562,-1.67188 l 0,-0.60937 z"
       style="fill:#000000;fill-rule:nonzero"
       inkscape:connector-curvature="0" />
    <path
       id="path17"
       d="m 315.46216,307.50847 0,0 c 0,-30.38001 36.93826,-55.00787 82.50397,-55.00787 l 0,0 c 45.56561,0 82.50391,24.62786 82.50391,55.00787 l 0,0 c 0,30.38003 -36.93829,55.00787 -82.50391,55.00787 l 0,0 c -45.5657,0 -82.50397,-24.62783 -82.50397,-55.00787 z"
       style="fill:#b6d7a8;fill-rule:nonzero"
       inkscape:connector-curvature="0" />
    <path
       id="path19"
       d="m 315.46216,307.50847 0,0 c 0,-30.38001 36.93826,-55.00787 82.50397,-55.00787 l 0,0 c 45.56561,0 82.50391,24.62786 82.50391,55.00787 l 0,0 c 0,30.38003 -36.93829,55.00787 -82.50391,55.00787 l 0,0 c -45.5657,0 -82.50397,-24.62783 -82.50397,-55.00787 z"
       style="fill-rule:nonzero;stroke:#6aa84f;stroke-width:2;stroke-linecap:butt;stroke-linejoin:round"
       inkscape:connector-curvature="0" />
    <path
       id="path21"
       d="m 359.79889,309.66285 1.79687,0.45312 q -0.5625,2.21875 -2.03125,3.39063 -1.46875,1.15625 -3.59375,1.15625 -2.20312,0 -3.57812,-0.89063 -1.375,-0.90625 -2.09375,-2.59375 -0.71875,-1.70312 -0.71875,-3.65625 0,-2.125 0.79687,-3.70312 0.8125,-1.57813 2.3125,-2.39063 1.5,-0.82812 3.29688,-0.82812 2.04687,0 3.4375,1.04687 1.39062,1.03125 1.9375,2.90625 l -1.76563,0.42188 q -0.46875,-1.48438 -1.375,-2.15625 -0.90625,-0.6875 -2.26562,-0.6875 -1.5625,0 -2.625,0.75 -1.04688,0.75 -1.48438,2.03125 -0.42187,1.26562 -0.42187,2.60937 0,1.73438 0.5,3.03125 0.51562,1.28125 1.57812,1.92188 1.07813,0.64062 2.3125,0.64062 1.51563,0 2.5625,-0.85937 1.04688,-0.875 1.42188,-2.59375 z m 2.92609,-0.15625 q 0,-2.73438 1.53125,-4.0625 1.26562,-1.09375 3.09375,-1.09375 2.03125,0 3.3125,1.34375 1.29687,1.32812 1.29687,3.67187 0,1.90625 -0.57812,3 -0.5625,1.07813 -1.65625,1.6875 -1.07813,0.59375 -2.375,0.59375 -2.0625,0 -3.34375,-1.32812 -1.28125,-1.32813 -1.28125,-3.8125 z m 1.71875,0 q 0,1.89062 0.82812,2.82812 0.82813,0.9375 2.07813,0.9375 1.25,0 2.0625,-0.9375 0.82812,-0.95312 0.82812,-2.89062 0,-1.82813 -0.82812,-2.76563 -0.82813,-0.9375 -2.0625,-0.9375 -1.25,0 -2.07813,0.9375 -0.82812,0.9375 -0.82812,2.82813 z m 9.28192,4.92187 0,-9.85937 1.5,0 0,1.39062 q 0.45312,-0.71875 1.21875,-1.15625 0.78125,-0.45312 1.76562,-0.45312 1.09375,0 1.79688,0.45312 0.70312,0.45313 0.98437,1.28125 1.17188,-1.73437 3.04688,-1.73437 1.46875,0 2.25,0.8125 0.79687,0.8125 0.79687,2.5 l 0,6.76562 -1.67187,0 0,-6.20312 q 0,-1 -0.15625,-1.4375 -0.15625,-0.45313 -0.59375,-0.71875 -0.42188,-0.26563 -1,-0.26563 -1.03125,0 -1.71875,0.6875 -0.6875,0.6875 -0.6875,2.21875 l 0,5.71875 -1.67188,0 0,-6.40625 q 0,-1.10937 -0.40625,-1.65625 -0.40625,-0.5625 -1.34375,-0.5625 -0.70312,0 -1.3125,0.375 -0.59375,0.35938 -0.85937,1.07813 -0.26563,0.71875 -0.26563,2.0625 l 0,5.10937 -1.67187,0 z m 15.54083,0 0,-9.85937 1.5,0 0,1.39062 q 0.45312,-0.71875 1.21875,-1.15625 0.78125,-0.45312 1.76562,-0.45312 1.09375,0 1.79688,0.45312 0.70312,0.45313 0.98437,1.28125 1.17188,-1.73437 3.04688,-1.73437 1.46875,0 2.25,0.8125 0.79687,0.8125 0.79687,2.5 l 0,6.76562 -1.67187,0 0,-6.20312 q 0,-1 -0.15625,-1.4375 -0.15625,-0.45313 -0.59375,-0.71875 -0.42188,-0.26563 -1,-0.26563 -1.03125,0 -1.71875,0.6875 -0.6875,0.6875 -0.6875,2.21875 l 0,5.71875 -1.67188,0 0,-6.40625 q 0,-1.10937 -0.40625,-1.65625 -0.40625,-0.5625 -1.34375,-0.5625 -0.70312,0 -1.3125,0.375 -0.59375,0.35938 -0.85937,1.07813 -0.26563,0.71875 -0.26563,2.0625 l 0,5.10937 -1.67187,0 z m 21.9939,0 0,-1.45312 q -1.14063,1.67187 -3.125,1.67187 -0.85938,0 -1.625,-0.32812 -0.75,-0.34375 -1.125,-0.84375 -0.35938,-0.5 -0.51563,-1.23438 -0.0937,-0.5 -0.0937,-1.5625 l 0,-6.10937 1.67188,0 0,5.46875 q 0,1.3125 0.0937,1.76562 0.15625,0.65625 0.67187,1.03125 0.51563,0.375 1.26563,0.375 0.75,0 1.40625,-0.375 0.65625,-0.39062 0.92187,-1.04687 0.28125,-0.67188 0.28125,-1.9375 l 0,-5.28125 1.67188,0 0,9.85937 -1.5,0 z m 3.9226,0 0,-9.85937 1.5,0 0,1.40625 q 1.09375,-1.625 3.14063,-1.625 0.89062,0 1.64062,0.32812 0.75,0.3125 1.10938,0.84375 0.375,0.51563 0.53125,1.21875 0.0937,0.46875 0.0937,1.625 l 0,6.0625 -1.67188,0 0,-6 q 0,-1.01562 -0.20312,-1.51562 -0.1875,-0.51563 -0.6875,-0.8125 -0.5,-0.29688 -1.17188,-0.29688 -1.0625,0 -1.84375,0.67188 -0.76562,0.67187 -0.76562,2.57812 l 0,5.375 -1.67188,0 z m 10.39136,-11.6875 0,-1.90625 1.67188,0 0,1.90625 -1.67188,0 z m 0,11.6875 0,-9.85937 1.67188,0 0,9.85937 -1.67188,0 z m 7.78546,-1.5 0.23438,1.48438 q -0.70313,0.14062 -1.26563,0.14062 -0.90625,0 -1.40625,-0.28125 -0.5,-0.29687 -0.70312,-0.75 -0.20313,-0.46875 -0.20313,-1.98437 l 0,-5.65625 -1.23437,0 0,-1.3125 1.23437,0 0,-2.4375 1.65625,-1 0,3.4375 1.6875,0 0,1.3125 -1.6875,0 0,5.75 q 0,0.71875 0.0781,0.92187 0.0937,0.20313 0.29687,0.32813 0.20313,0.125 0.57813,0.125 0.26562,0 0.73437,-0.0781 z m 1.44892,5.29688 -0.17188,-1.5625 q 0.54688,0.14062 0.95313,0.14062 0.54687,0 0.875,-0.1875 0.34375,-0.1875 0.5625,-0.51562 0.15625,-0.25 0.5,-1.25 0.0469,-0.14063 0.15625,-0.40625 l -3.73438,-9.875 1.79688,0 2.04687,5.71875 q 0.40625,1.07812 0.71875,2.28125 0.28125,-1.15625 0.6875,-2.25 l 2.09375,-5.75 1.67188,0 -3.75,10.03125 q -0.59375,1.625 -0.9375,2.23437 -0.4375,0.82813 -1.01563,1.20313 -0.57812,0.39062 -1.375,0.39062 -0.48437,0 -1.07812,-0.20312 z"
       style="fill:#000000;fill-rule:nonzero"
       inkscape:connector-curvature="0" />
    <path
       id="path23"
       d="m 43.462162,307.50847 0,0 c 0,-30.38001 28.87939,-55.00787 64.503938,-55.00787 l 0,0 c 35.62454,0 64.50394,24.62786 64.50394,55.00787 l 0,0 c 0,30.38003 -28.8794,55.00787 -64.50394,55.00787 l 0,0 c -35.624538,0 -64.503938,-24.62783 -64.503938,-55.00787 z"
       style="fill:#b6d7a8;fill-rule:nonzero"
       inkscape:connector-curvature="0" />
    <path
       id="path25"
       d="m 43.462162,307.50847 0,0 c 0,-30.38001 28.87939,-55.00787 64.503938,-55.00787 l 0,0 c 35.62454,0 64.50394,24.62786 64.50394,55.00787 l 0,0 c 0,30.38003 -28.8794,55.00787 -64.50394,55.00787 l 0,0 c -35.624538,0 -64.503938,-24.62783 -64.503938,-55.00787 z"
       style="fill-rule:nonzero;stroke:#6aa84f;stroke-width:2;stroke-linecap:butt;stroke-linejoin:round"
       inkscape:connector-curvature="0" />
    <path
       id="path27"
       d="m 71.323672,314.42847 5.23437,-13.59375 1.9375,0 5.5625,13.59375 -2.04687,0 -1.59375,-4.125 -5.6875,0 -1.48438,4.125 -1.92187,0 z m 3.92187,-5.57813 4.60938,0 -1.40625,-3.78125 q -0.65625,-1.70312 -0.96875,-2.8125 -0.26563,1.3125 -0.73438,2.59375 l -1.5,4 z m 8.92795,5.57813 0,-1.35938 6.26563,-7.1875 q -1.0625,0.0469 -1.875,0.0469 l -4.01563,0 0,-1.35938 8.04688,0 0,1.10938 -5.34375,6.25 -1.01563,1.14062 q 1.10938,-0.0781 2.09375,-0.0781 l 4.5625,0 0,1.4375 -8.71875,0 z m 10.21875,-11.6875 0,-1.90625 1.67188,0 0,1.90625 -1.67188,0 z m 0,11.6875 0,-9.85938 1.67188,0 0,9.85938 -1.67188,0 z m 10.879208,-3.17188 1.71875,0.21875 q -0.40625,1.5 -1.51562,2.34375 -1.09375,0.82813 -2.8125,0.82813 -2.15625,0 -3.421878,-1.32813 -1.26564,-1.32812 -1.26564,-3.73437 0,-2.48438 1.26564,-3.85938 1.281248,-1.375 3.328128,-1.375 1.98437,0 3.23437,1.34375 1.25,1.34375 1.25,3.79688 0,0.14062 -0.0156,0.4375 l -7.343748,0 q 0.0937,1.625 0.921868,2.48437 0.82813,0.85938 2.0625,0.85938 0.90625,0 1.54688,-0.46875 0.65625,-0.48438 1.04687,-1.54688 z m -5.484368,-2.70312 5.499998,0 q -0.10938,-1.23438 -0.625,-1.85938 -0.79688,-0.96875 -2.07813,-0.96875 -1.14062,0 -1.9375,0.78125 -0.781248,0.76563 -0.859368,2.04688 z m 9.110078,5.875 0,-9.85938 1.5,0 0,1.40625 q 1.09375,-1.625 3.14062,-1.625 0.89063,0 1.64063,0.32813 0.75,0.3125 1.10937,0.84375 0.375,0.51562 0.53125,1.21875 0.0937,0.46875 0.0937,1.625 l 0,6.0625 -1.67187,0 0,-6 q 0,-1.01563 -0.20313,-1.51563 -0.1875,-0.51562 -0.6875,-0.8125 -0.5,-0.29687 -1.17187,-0.29687 -1.0625,0 -1.84375,0.67187 -0.76563,0.67188 -0.76563,2.57813 l 0,5.375 -1.67187,0 z m 16.76635,0 0,-1.25 q -0.9375,1.46875 -2.75,1.46875 -1.17187,0 -2.17187,-0.64063 -0.98438,-0.65625 -1.53125,-1.8125 -0.53125,-1.17187 -0.53125,-2.6875 0,-1.46875 0.48437,-2.67187 0.5,-1.20313 1.46875,-1.84375 0.98438,-0.64063 2.20313,-0.64063 0.89062,0 1.57812,0.375 0.70313,0.375 1.14063,0.98438 l 0,-4.875 1.65625,0 0,13.59375 -1.54688,0 z m -5.28125,-4.92188 q 0,1.89063 0.79688,2.82813 0.8125,0.9375 1.89062,0.9375 1.09375,0 1.85938,-0.89063 0.76562,-0.89062 0.76562,-2.73437 0,-2.01563 -0.78125,-2.95313 -0.78125,-0.95312 -1.92187,-0.95312 -1.10938,0 -1.85938,0.90625 -0.75,0.90625 -0.75,2.85937 z m 16.01633,1.75 1.71875,0.21875 q -0.40625,1.5 -1.51562,2.34375 -1.09375,0.82813 -2.8125,0.82813 -2.15625,0 -3.42188,-1.32813 -1.26562,-1.32812 -1.26562,-3.73437 0,-2.48438 1.26562,-3.85938 1.28125,-1.375 3.32813,-1.375 1.98437,0 3.23437,1.34375 1.25,1.34375 1.25,3.79688 0,0.14062 -0.0156,0.4375 l -7.34375,0 q 0.0937,1.625 0.92187,2.48437 0.82813,0.85938 2.0625,0.85938 0.90625,0 1.54688,-0.46875 0.65625,-0.48438 1.04687,-1.54688 z m -5.48437,-2.70312 5.5,0 q -0.10938,-1.23438 -0.625,-1.85938 -0.79688,-0.96875 -2.07813,-0.96875 -1.14062,0 -1.9375,0.78125 -0.78125,0.76563 -0.85937,2.04688 z"
       style="fill:#000000;fill-rule:nonzero"
       inkscape:connector-curvature="0" />
    <path
       id="path29"
       d="m 327.9661,89.508481 0,0 c 0,-30.38001 31.34006,-55.00787 70.00003,-55.00787 l 0,0 c 38.65991,0 70,24.62786 70,55.00787 l 0,0 c 0,30.380009 -31.34009,55.007869 -70,55.007869 l 0,0 c -38.65997,0 -70.00003,-24.62786 -70.00003,-55.007869 z"
       style="fill:#b6d7a8;fill-rule:nonzero"
       inkscape:connector-curvature="0" />
    <path
       id="path31"
       d="m 327.9661,89.508481 0,0 c 0,-30.38001 31.34006,-55.00787 70.00003,-55.00787 l 0,0 c 38.65991,0 70,24.62786 70,55.00787 l 0,0 c 0,30.380009 -31.34009,55.007869 -70,55.007869 l 0,0 c -38.65997,0 -70.00003,-24.62786 -70.00003,-55.007869 z"
       style="fill-rule:nonzero;stroke:#6aa84f;stroke-width:2;stroke-linecap:butt;stroke-linejoin:round"
       inkscape:connector-curvature="0" />
    <path
       id="path33"
       d="m 365.57092,96.428471 0,-12 -4.46875,0 0,-1.59375 10.76562,0 0,1.59375 -4.5,0 0,12 -1.79687,0 z m 14.47412,-3.17188 1.71875,0.21875 q -0.40625,1.5 -1.51562,2.34375 -1.09375,0.82813 -2.8125,0.82813 -2.15625,0 -3.42188,-1.32813 -1.26562,-1.32812 -1.26562,-3.73437 0,-2.48438 1.26562,-3.85938 1.28125,-1.375 3.32813,-1.375 1.98437,0 3.23437,1.34375 1.25,1.34375 1.25,3.79688 0,0.14062 -0.0156,0.4375 l -7.34375,0 q 0.0937,1.625 0.92187,2.48437 0.82813,0.85938 2.0625,0.85938 0.90625,0 1.54688,-0.46875 0.65625,-0.48438 1.04687,-1.54688 z m -5.48437,-2.70312 5.5,0 q -0.10938,-1.23438 -0.625,-1.85938 -0.79688,-0.96875 -2.07813,-0.96875 -1.14062,0 -1.9375,0.78125 -0.78125,0.76563 -0.85937,2.04688 z m 9.09442,5.875 0,-9.85938 1.5,0 0,1.5 q 0.57812,-1.04687 1.0625,-1.375 0.48437,-0.34375 1.07812,-0.34375 0.84375,0 1.71875,0.54688 l -0.57812,1.54687 q -0.60938,-0.35937 -1.23438,-0.35937 -0.54687,0 -0.98437,0.32812 -0.42188,0.32813 -0.60938,0.90625 -0.28125,0.89063 -0.28125,1.95313 l 0,5.15625 -1.67187,0 z m 6.2127,0 0,-9.85938 1.5,0 0,1.5 q 0.57813,-1.04687 1.0625,-1.375 0.48438,-0.34375 1.07813,-0.34375 0.84375,0 1.71875,0.54688 l -0.57813,1.54687 q -0.60937,-0.35937 -1.23437,-0.35937 -0.54688,0 -0.98438,0.32812 -0.42187,0.32813 -0.60937,0.90625 -0.28125,0.89063 -0.28125,1.95313 l 0,5.15625 -1.67188,0 z m 6.2439,-11.6875 0,-1.90625 1.67188,0 0,1.90625 -1.67188,0 z m 0,11.6875 0,-9.85938 1.67188,0 0,9.85938 -1.67188,0 z m 7.78546,-1.5 0.23438,1.48437 q -0.70313,0.14063 -1.26563,0.14063 -0.90625,0 -1.40625,-0.28125 -0.5,-0.29688 -0.70312,-0.75 -0.20313,-0.46875 -0.20313,-1.98438 l 0,-5.65625 -1.23437,0 0,-1.3125 1.23437,0 0,-2.4375 1.65625,-1 0,3.4375 1.6875,0 0,1.3125 -1.6875,0 0,5.75 q 0,0.71875 0.0781,0.92188 0.0937,0.20312 0.29687,0.32812 0.20313,0.125 0.57813,0.125 0.26562,0 0.73437,-0.0781 z m 0.90204,-3.42188 q 0,-2.73437 1.53125,-4.0625 1.26563,-1.09375 3.09375,-1.09375 2.03125,0 3.3125,1.34375 1.29688,1.32813 1.29688,3.67188 0,1.90625 -0.57813,3 -0.5625,1.07812 -1.65625,1.6875 -1.07812,0.59375 -2.375,0.59375 -2.0625,0 -3.34375,-1.32813 -1.28125,-1.32812 -1.28125,-3.8125 z m 1.71875,0 q 0,1.89063 0.82813,2.82813 0.82812,0.9375 2.07812,0.9375 1.25,0 2.0625,-0.9375 0.82813,-0.95313 0.82813,-2.89063 0,-1.82812 -0.82813,-2.76562 -0.82812,-0.9375 -2.0625,-0.9375 -1.25,0 -2.07812,0.9375 -0.82813,0.9375 -0.82813,2.82812 z m 9.26636,4.92188 0,-9.85938 1.5,0 0,1.5 q 0.57812,-1.04687 1.0625,-1.375 0.48437,-0.34375 1.07812,-0.34375 0.84375,0 1.71875,0.54688 l -0.57812,1.54687 q -0.60938,-0.35937 -1.23438,-0.35937 -0.54687,0 -0.98437,0.32812 -0.42188,0.32813 -0.60938,0.90625 -0.28125,0.89063 -0.28125,1.95313 l 0,5.15625 -1.67187,0 z m 6.24396,-11.6875 0,-1.90625 1.67187,0 0,1.90625 -1.67187,0 z m 0,11.6875 0,-9.85938 1.67187,0 0,9.85938 -1.67187,0 z m 3.50415,-4.92188 q 0,-2.73437 1.53125,-4.0625 1.26562,-1.09375 3.09375,-1.09375 2.03125,0 3.3125,1.34375 1.29687,1.32813 1.29687,3.67188 0,1.90625 -0.57812,3 -0.5625,1.07812 -1.65625,1.6875 -1.07813,0.59375 -2.375,0.59375 -2.0625,0 -3.34375,-1.32813 -1.28125,-1.32812 -1.28125,-3.8125 z m 1.71875,0 q 0,1.89063 0.82812,2.82813 0.82813,0.9375 2.07813,0.9375 1.25,0 2.0625,-0.9375 0.82812,-0.95313 0.82812,-2.89063 0,-1.82812 -0.82812,-2.76562 -0.82813,-0.9375 -2.0625,-0.9375 -1.25,0 -2.07813,0.9375 -0.82812,0.9375 -0.82812,2.82812 z"
       style="fill:#000000;fill-rule:nonzero"
       inkscape:connector-curvature="0" />
    <path
       id="path35"
       d="m 107.9661,144.51635 c 0,26.99622 0.0158,40.49245 0.0315,53.99245 0.0157,13.5 0.0315,27.00378 0.0315,54.00754"
       style="fill:#000000;fill-opacity:0;fill-rule:nonzero"
       inkscape:connector-curvature="0" />
    <path
       id="path37"
       d="m 107.9661,144.51635 c 0,26.99622 0.0158,40.49245 0.0315,53.99245 0.0157,13.5 0.0315,27.00378 0.0315,54.00754"
       style="fill-rule:nonzero;stroke:#6aa84f;stroke-width:2;stroke-linecap:butt;stroke-linejoin:round"
       inkscape:connector-curvature="0" />
    <path
       id="path39"
       d="m 153.57726,128.40492 c 0,35.05162 46.51181,52.57567 93.02362,70.10324 46.51181,17.52756 93.02362,35.05862 93.02362,70.11722"
       style="fill:#000000;fill-opacity:0;fill-rule:nonzero"
       inkscape:connector-curvature="0" />
    <path
       id="path41"
       d="m 153.57726,128.40492 c 0,35.05162 46.51181,52.57567 93.02362,70.10324 46.51181,17.52756 93.02362,35.05862 93.02362,70.11722"
       style="fill-rule:nonzero;stroke:#6aa84f;stroke-width:2;stroke-linecap:butt;stroke-linejoin:round"
       inkscape:connector-curvature="0" />
    <path
       id="path43"
       d="m 172.47003,307.50847 c 35.74805,0 53.62204,0.0158 71.49606,0.0315 17.87402,0.0158 35.74805,0.0315 71.49606,0.0315"
       style="fill:#000000;fill-opacity:0;fill-rule:nonzero"
       inkscape:connector-curvature="0" />
    <path
       id="path45"
       d="m 172.47003,307.50847 c 35.74805,0 53.62204,0.0158 71.49606,0.0315 17.87402,0.0158 35.74805,0.0315 71.49606,0.0315"
       style="fill-rule:nonzero;stroke:#6aa84f;stroke-width:2;stroke-linecap:butt;stroke-linejoin:round"
       inkscape:connector-curvature="0" />
    <path
       id="path47"
       d="m 397.96613,144.51635 c 0,26.99622 0.0158,40.49245 0.0315,53.99245 0.0158,13.5 0.0315,27.00378 0.0315,54.00754"
       style="fill:#000000;fill-opacity:0;fill-rule:nonzero"
       inkscape:connector-curvature="0" />
    <path
       id="path49"
       d="m 397.96613,144.51635 c 0,26.99622 0.0158,40.49245 0.0315,53.99245 0.0158,13.5 0.0315,27.00378 0.0315,54.00754"
       style="fill-rule:nonzero;stroke:#6aa84f;stroke-width:2;stroke-linecap:butt;stroke-linejoin:round"
       inkscape:connector-curvature="0" />
    <path
       id="path51"
       d="m 172.47003,89.508481 c 38.87402,0 58.31104,0.0157 77.74805,0.0315 19.43698,0.0157 38.87399,0.0315 77.74802,0.0315"
       style="fill:#000000;fill-opacity:0;fill-rule:nonzero"
       inkscape:connector-curvature="0" />
    <path
       id="path53"
       d="m 172.47003,89.508481 c 38.87402,0 58.31104,0.0157 77.74805,0.0315 19.43698,0.0157 38.87399,0.0315 77.74802,0.0315"
       style="fill-rule:nonzero;stroke:#6aa84f;stroke-width:2;stroke-linecap:butt;stroke-linejoin:round"
       inkscape:connector-curvature="0" />
    <path
       id="path55"
       d="m 348.46863,128.40492 c 0,35.05162 -48.72443,52.57567 -97.44882,70.10324 -48.72443,17.52756 -97.44882,35.05862 -97.44882,70.11722"
       style="fill:#000000;fill-opacity:0;fill-rule:nonzero"
       inkscape:connector-curvature="0" />
  </g>
  <path
     inkscape:connector-curvature="0"
     style="fill-rule:nonzero;stroke:#6aa84f;stroke-width:2;stroke-linecap:butt;stroke-linejoin:round"
     d="m 321.00647,109.90431 c 0,35.05162 -48.72443,52.57567 -97.44882,70.10324 -48.72443,17.52756 -97.44882,35.05862 -97.44882,70.11722"
     id="path57" />
</svg>
